<?xml version="1.0" standalone="no"?>
<!DOCTYPE svg PUBLIC "-//W3C//DTD SVG 20010904//EN"
 "http://www.w3.org/TR/2001/REC-SVG-20010904/DTD/svg10.dtd">
<svg version="1.0" xmlns="http://www.w3.org/2000/svg"
 width="256.000000pt" height="256.000000pt" viewBox="0 0 256.000000 256.000000"
 preserveAspectRatio="xMidYMid meet">

<g transform="translate(0.000000,256.000000) scale(0.100000,-0.100000)"
fill="#FF0000" stroke="none">
<path fill="#FF0000" d="M791 2141 c-13 -8 -11 -22 14 -93 16 -46 75 -216 131 -378 89 -255
108 -319 90 -299 -2 2 -74 153 -160 334 -87 182 -161 334 -167 340 -6 6 -17 1
-31 -12 l-21 -22 146 -313 c81 -173 147 -317 147 -321 0 -4 -76 -7 -170 -7
l-170 0 0 -44 c0 -152 89 -402 203 -571 50 -73 142 -172 179 -191 21 -11 86
-14 304 -14 l277 0 78 80 c187 192 269 374 314 692 l6 48 -427 2 -428 3 -76
220 c-42 121 -102 295 -134 388 -59 170 -67 182 -105 158z"/>
<path fill="#FF0000" d="M792 448 l3 -33 478 -3 477 -2 0 35 0 35 -481 0 -480 0 3 -32z"/>
</g>
</svg>